# xmcd
#
# Track frame offsets:
# 150
# 15707
# 37071
# 51011
# 65043
# 81644
# 107651
# 123893
# 136403
# 155271
# 174254
# 196724
#
# Disc length: 2914 seconds
#
# Revision: 0
# Processed by: cddbd v1.5.2PL0 Copyright (c) Steve Scherf et al.
# Submitted via: Audion 3.0.2 (http://www.panic.com/audion/)
#
DISCID=9d0b600c
DTITLE=The Constantines - Kensington Heights
DYEAR=1900
DGENRE=
TTITLE0=Hard Feelings
TTITLE1=Million Star Hotel
TTITLE2=Trans Canada
TTITLE3=Shower of Stones
TTITLE4=Our Age
TTITLE5=Time Can Be Overcome
TTITLE6=Brother Run Them Down
TTITLE7=Credit River
TTITLE8=I Will Not Sing a Hateful Song
TTITLE9=New King
TTITLE10=Life or Death
TTITLE11=Do What You Can Do
EXTD=
EXTT0=
EXTT1=
EXTT2=
EXTT3=
EXTT4=
EXTT5=
EXTT6=
EXTT7=
EXTT8=
EXTT9=
EXTT10=
EXTT11=
PLAYORDER=
